<svg preserveAspectRatio="none" overflow="visible" style="display: block;" width="24" height="24" viewBox="0 0 24 24" fill="none" xmlns="http://www.w3.org/2000/svg">
<g id="Frame">
<path id="Vector" d="M2.06251 11.652C1.97916 11.8765 1.97916 12.1235 2.06251 12.348C2.87421 14.3161 4.25202 15.999 6.02128 17.1831C7.79053 18.3672 9.87155 18.9994 12.0005 18.9994C14.1295 18.9994 16.2105 18.3672 17.9797 17.1831C19.749 15.999 21.1268 14.3161 21.9385 12.348C22.0218 12.1235 22.0218 11.8765 21.9385 11.652C21.1268 9.68385 19.749 8.00103 17.9797 6.81689C16.2105 5.63275 14.1295 5.00061 12.0005 5.00061C9.87155 5.00061 7.79053 5.63275 6.02128 6.81689C4.25202 8.00103 2.87421 9.68385 2.06251 11.652Z" stroke="black" stroke-width="2" stroke-linecap="round" stroke-linejoin="round"/>
<path id="Vector_2" d="M12 15C13.6569 15 15 13.6569 15 12C15 10.3431 13.6569 9 12 9C10.3431 9 9 10.3431 9 12C9 13.6569 10.3431 15 12 15Z" stroke="black" stroke-width="2" stroke-linecap="round" stroke-linejoin="round"/>
</g>
</svg>
