<svg preserveAspectRatio="none" overflow="visible" style="display: block;" width="40" height="40" viewBox="0 0 40 40" fill="none" xmlns="http://www.w3.org/2000/svg">
<g id="Group 2">
<circle id="Ellipse 10" cx="20" cy="20" r="19.5833" stroke="white" stroke-width="0.833333"/>
<g id="Layer_1">
<path id="Vector" fill-rule="evenodd" clip-rule="evenodd" d="M13.9639 15.0738L18.2864 19.3982C19.2291 20.3391 20.7702 20.3399 21.7137 19.3982L26.0362 15.0738C26.0798 15.0303 26.0734 14.9586 26.0229 14.9233C25.582 14.6159 25.0456 14.4336 24.4678 14.4336H15.5323C14.9545 14.4336 14.4181 14.6159 13.9772 14.9233C13.9267 14.9586 13.9204 15.0303 13.9639 15.0738ZM12.8088 17.1571C12.8088 16.7028 12.9214 16.2734 13.1199 15.8961C13.1509 15.8371 13.2295 15.8251 13.2767 15.8723L17.5445 20.1401C18.8959 21.4935 21.1034 21.4943 22.4557 20.1401L26.7234 15.8723C26.7706 15.8251 26.8493 15.8371 26.8803 15.8961C27.0787 16.2734 27.1914 16.7028 27.1914 17.1571V22.8427C27.1914 24.3456 25.9689 25.5662 24.4678 25.5662H15.5323C14.0313 25.5662 12.8088 24.3456 12.8088 22.8427V17.1571Z" fill="white"/>
</g>
</g>
</svg>
