<svg preserveAspectRatio="none" overflow="visible" style="display: block;" width="38" height="38" viewBox="0 0 38 38" fill="none" xmlns="http://www.w3.org/2000/svg">
<g id="Group 8">
<circle id="Ellipse 11" cx="19" cy="19" r="18.5" stroke="white"/>
<g id="icon">
<path id="Vector" d="M24.6913 13.2537C23.3486 11.9084 21.5655 11.0833 19.6637 10.9274C17.7618 10.7714 15.8664 11.2949 14.3193 12.4033C12.7722 13.5116 11.6752 15.132 11.2263 16.9721C10.7774 18.8122 11.006 20.7509 11.8711 22.4385L11.0219 26.5282C11.0131 26.5689 11.0129 26.611 11.0212 26.6518C11.0295 26.6926 11.0463 26.7313 11.0703 26.7654C11.1056 26.8171 11.156 26.8569 11.2147 26.8796C11.2733 26.9022 11.3376 26.9065 11.3988 26.8919L15.4391 25.9419C17.1353 26.7783 19.0757 26.9906 20.9149 26.5409C22.7541 26.0913 24.3729 25.0088 25.4832 23.4863C26.5935 21.9637 27.1232 20.0997 26.9782 18.226C26.8332 16.3522 26.0229 14.5903 24.6913 13.2537ZM23.4316 23.2285C22.5026 24.1476 21.3063 24.7542 20.0113 24.963C18.7164 25.1719 17.388 24.9723 16.2134 24.3924L15.6503 24.116L13.1733 24.6979L13.1807 24.6674L13.6939 22.1941L13.4182 21.6543C12.8181 20.485 12.6064 19.1572 12.8134 17.8612C13.0205 16.5651 13.6357 15.3674 14.5709 14.4395C15.746 13.274 17.3396 12.6193 19.0012 12.6193C20.6629 12.6193 22.2565 13.274 23.4316 14.4395C23.4416 14.4509 23.4524 14.4615 23.4639 14.4715C24.6244 15.6399 25.2723 17.2162 25.2663 18.8566C25.2602 20.497 24.6007 22.0685 23.4316 23.2285Z" fill="white"/>
<path id="Vector_2" d="M23.2115 21.4143C22.9079 21.8886 22.4284 22.4691 21.8256 22.6131C20.7698 22.8663 19.1493 22.6219 17.1328 20.7567L17.1079 20.7349C15.3349 19.1039 14.8744 17.7465 14.9858 16.6699C15.0474 16.0588 15.5607 15.506 15.9933 15.1452C16.0617 15.0873 16.1428 15.046 16.2302 15.0248C16.3175 15.0035 16.4086 15.0028 16.4963 15.0228C16.5839 15.0427 16.6656 15.0827 16.7349 15.1396C16.8042 15.1965 16.8591 15.2686 16.8952 15.3503L17.5478 16.8052C17.5902 16.8995 17.6059 17.0035 17.5933 17.1061C17.5806 17.2086 17.5401 17.3058 17.476 17.3872L17.146 17.812C17.0752 17.8997 17.0325 18.0064 17.0233 18.1184C17.0142 18.2305 17.039 18.3426 17.0947 18.4405C17.2795 18.762 17.7223 19.2349 18.2136 19.6728C18.765 20.1675 19.3766 20.6199 19.7637 20.7742C19.8673 20.8161 19.9812 20.8264 20.0907 20.8036C20.2003 20.7808 20.3004 20.7259 20.3782 20.6461L20.761 20.2635C20.8348 20.1912 20.9267 20.1397 21.0271 20.1142C21.1276 20.0886 21.2331 20.0899 21.3329 20.118L22.883 20.5545C22.9685 20.5805 23.0469 20.6256 23.1121 20.6862C23.1774 20.7469 23.2278 20.8216 23.2595 20.9046C23.2912 20.9876 23.3034 21.0766 23.295 21.165C23.2867 21.2533 23.2581 21.3386 23.2115 21.4143Z" fill="white"/>
</g>
</g>
</svg>
